<?xml version="1.0" encoding="UTF-8"?>
<svg xmlns="http://www.w3.org/2000/svg" onmouseup="{ if(window.parent.document.onmouseup) window.parent.document.onmouseup(arguments[0]);}" viewBox="0 0 222.13582 31.76449" data-name="Layer 1" id="Layer_1" xmlns:xlink="http://www.w3.org/1999/xlink">
  <defs>
    <style>
      .cls-1 {
        fill: #494949;
      }

      .cls-2 {
        fill: #7d4199;
      }

      .cls-3 {
        fill: url(#linear-gradient);
      }

      .cls-4 {
        fill: #fff;
      }

      .cls-5 {
        fill: #d1d1d1;
      }
    </style>
    <linearGradient id="linear-gradient" x1="24.66023" y1="26.96102" x2="13.00416" y2="13.44031" gradientUnits="userSpaceOnUse">
      <stop offset="0.18777" stop-color="#7d4199"/>
      <stop offset="0.41893" stop-color="#773e92"/>
      <stop offset="0.74682" stop-color="#663680"/>
      <stop offset="0.94595" stop-color="#582f71"/>
    </linearGradient>
  </defs>
  <title>QualityTrainerLogoPurple</title>
  <g>
    <path class="cls-1" d="M67.05281,25.08481H56.19832A10.06641,10.06641,0,0,1,45.84481,14.98227c0-5.70605,3.89648-10.10352,9.9917-10.10352s9.9917,4.39746,9.9917,10.10352c0,3.45117-1.86475,7.208-4.92627,8.377v0.05566h6.15088v1.66992ZM56.14266,23.41488c5.06543,0,7.84863-4.06348,7.84863-8.43262,0-4.78711-3.03369-8.43359-8.15479-8.43359s-8.15479,3.64648-8.15479,8.43359A8.29447,8.29447,0,0,0,56.14266,23.41488Z"/>
    <path class="cls-1" d="M80.189,21.46664c0,0.94629.13916,2.9502,0.13916,3.61816H78.65828c-0.02783-.94629-0.05566-2.00391-0.11133-2.25391h-0.0835A4.81036,4.81036,0,0,1,74.066,25.41879c-4.00781,0-4.89844-2.72754-4.89844-5.53809v-7.6543h1.66992v7.57031c0,2.08789.58447,4.11914,3.22852,4.11914,2.47705,0,4.45313-1.72559,4.45313-5.25977V12.22641H80.189v9.24023Z"/>
    <path class="cls-1" d="M94.2159,19.68539a39.42545,39.42545,0,0,0,.25049,5.39941H92.90779a12.42928,12.42928,0,0,1-.167-2.08691H92.68514a4.68251,4.68251,0,0,1-4.50879,2.4209c-2.19873,0-4.53662-1.085-4.53662-3.8125,0-3.9248,4.59229-4.31445,7.125-4.31445H92.713v-0.7793c0-2.22656-1.55859-3.11719-3.61816-3.11719a5.80917,5.80917,0,0,0-3.92432,1.44727L84.19637,13.702a7.50148,7.50148,0,0,1,4.89844-1.80957c3.11719,0,5.12109,1.3916,5.12109,4.64844v3.14453Zm-3.33984-1.05762c-2.7832,0-5.56641.69629-5.56641,2.89453,0,1.58691,1.53076,2.39355,2.92236,2.39355,3.5625,0,4.481-2.28223,4.481-4.4248V18.62778H90.87606Z"/>
    <path class="cls-1" d="M98.39022,4.04379h1.66992v21.041H98.39022V4.04379Z"/>
    <path class="cls-1" d="M105.34774,5.8807a1.25244,1.25244,0,1,1-1.25244,1.25293A1.24734,1.24734,0,0,1,105.34774,5.8807Zm-0.835,6.3457h1.66992v12.8584h-1.66992V12.22641Z"/>
    <path class="cls-1" d="M116.64656,13.72934h-3.67334v8.37793a1.64662,1.64662,0,0,0,1.78125,1.80859,4.94558,4.94558,0,0,0,1.89209-.44531l0.13965,1.50293a7.36262,7.36262,0,0,1-2.1709.44531,2.99912,2.99912,0,0,1-3.312-3.31152V13.72934h-2.7832V12.22641h2.7832V8.52524h1.66992v3.70117h3.67334v1.50293Z"/>
    <path class="cls-1" d="M122.6866,29.06528a3.62789,3.62789,0,0,1-3.53516,2.69922,6.52864,6.52864,0,0,1-1.6416-.25l0.167-1.55859a5.56637,5.56637,0,0,0,1.50293.30566c1.22461,0,1.75293-1.14062,2.14258-2.14258l1.16895-2.97852-5.23242-12.91406h1.86523l4.25781,10.82715,4.14746-10.82715h1.78125Z"/>
    <path class="cls-1" d="M142.919,7.04965h-6.73535V5.37973h15.30762V7.04965h-6.73535V25.08481H142.919V7.04965Z"/>
    <path class="cls-1" d="M150.93465,15.84457c0-.94629-0.13965-2.9502-0.13965-3.61816h1.66992c0.02832,0.94629.05566,2.00391,0.11133,2.25488a4.56865,4.56865,0,0,1,4.0918-2.58887,3.89442,3.89442,0,0,1,.97363.13965l-0.19434,1.6416a2.07769,2.07769,0,0,0-.64062-0.11133c-2.89453,0-4.20215,2.00391-4.20215,4.50879v7.01367h-1.66992V15.84457Z"/>
    <path class="cls-1" d="M169.6368,19.68539a39.332,39.332,0,0,0,.251,5.39941h-1.55859a12.42928,12.42928,0,0,1-.167-2.08691h-0.05566a4.68251,4.68251,0,0,1-4.50879,2.4209c-2.19922,0-4.53711-1.085-4.53711-3.8125,0-3.9248,4.59277-4.31445,7.125-4.31445h1.94824v-0.7793c0-2.22656-1.55859-3.11719-3.61816-3.11719a5.80706,5.80706,0,0,0-3.92383,1.44727L159.61727,13.702a7.50148,7.50148,0,0,1,4.89844-1.80957c3.11719,0,5.12109,1.3916,5.12109,4.64844v3.14453ZM166.297,18.62778c-2.7832,0-5.56641.69629-5.56641,2.89453,0,1.58691,1.53125,2.39355,2.92285,2.39355,3.5625,0,4.48047-2.28223,4.48047-4.4248V18.62778H166.297Z"/>
    <path class="cls-1" d="M174.64656,5.8807a1.25244,1.25244,0,1,1-1.25293,1.25293A1.24723,1.24723,0,0,1,174.64656,5.8807Zm-0.835,6.3457h1.66992v12.8584H173.8116V12.22641Z"/>
    <path class="cls-1" d="M179.65633,15.84457c0-.94629-0.13965-2.9502-0.13965-3.61816h1.66992c0.02832,0.94629.05566,2.00391,0.11133,2.25488h0.084a4.8088,4.8088,0,0,1,4.39746-2.58887c4.00781,0,4.89844,2.72754,4.89844,5.53906v7.65332h-1.66992V17.51449c0-2.08691-.585-4.11914-3.22852-4.11914-2.47754,0-4.45312,1.72559-4.45312,5.26074v6.42871h-1.66992V15.84457Z"/>
    <path class="cls-1" d="M205.92879,22.66391a6.311,6.311,0,0,1-5.56641,2.75488c-3.92383,0-6.5127-2.81055-6.5127-6.791a6.388,6.388,0,0,1,6.42969-6.73535,5.84668,5.84668,0,0,1,6.03906,6.01172v1.16895H195.51961a4.7991,4.7991,0,0,0,4.87109,4.84277,5.16518,5.16518,0,0,0,4.31348-2.28223Zm-1.28027-5.09375a4.32445,4.32445,0,0,0-4.45312-4.1748,4.76991,4.76991,0,0,0-4.67578,4.1748h9.12891Z"/>
    <path class="cls-1" d="M209.49129,15.84457c0-.94629-0.13965-2.9502-0.13965-3.61816h1.66992c0.02832,0.94629.05566,2.00391,0.11133,2.25488a4.56865,4.56865,0,0,1,4.0918-2.58887,3.89442,3.89442,0,0,1,.97363.13965l-0.19434,1.6416a2.07769,2.07769,0,0,0-.64062-0.11133c-2.89453,0-4.20215,2.00391-4.20215,4.50879v7.01367h-1.66992V15.84457Z"/>
    <path class="cls-1" d="M219.16707,4.9432A2.96875,2.96875,0,1,1,216.1993,7.912,2.97307,2.97307,0,0,1,219.16707,4.9432Zm0,5.50684A2.5376,2.5376,0,1,0,216.63,7.912,2.53358,2.53358,0,0,0,219.16707,10.45Zm-0.64551-.83789h-0.43164V6.18832h1.31738a0.88619,0.88619,0,0,1,1.07715.9502,0.92424,0.92424,0,0,1-.8623.97363l1.02148,1.5h-0.48633l-1.02148-1.5h-0.61426v1.5Zm0-1.88379h0.5498c0.47168,0,.98242-0.02344.98242-0.58984a0.63668,0.63668,0,0,0-.7666-0.56641h-0.76562V7.72836Z"/>
  </g>
  <path id="_Path_" data-name="&lt;Path&gt;" class="cls-2" d="M0.92636,0H27.66307a0.92636,0.92636,0,0,1,.92636.92636V27.66354a0.92625,0.92625,0,0,1-.92625.92625H0.92625A0.92625,0.92625,0,0,1,0,27.66354V0.92636A0.92636,0.92636,0,0,1,.92636,0Z"/>
  <path id="_Path_2" data-name="&lt;Path&gt;" class="cls-3" d="M28.58942,27.61394V20.14231L20.15865,9.85867,14.78572,8.32793l-5.70557.8228,5.21456,5.14416-0.08977.89818L9.9888,10.97759l-2.36743.09609,1.29881,9.51,10.0595,8.00613h5.36807l-0.03185-.02758,1.0024-.0066,0.04093,0.03419H27.622A1.01265,1.01265,0,0,0,28.58942,27.61394Z"/>
  <path id="_Path_3" data-name="&lt;Path&gt;" class="cls-4" d="M14.10951,20.70983A5.78406,5.78406,0,0,1,9.9888,10.97759H7.55919a7.78731,7.78731,0,0,0,11.92366,9.73494H14.10951V20.70983Z"/>
  <path id="_Path_4" data-name="&lt;Path&gt;" class="cls-4" d="M20.00528,14.92556a5.76451,5.76451,0,0,1-1.558,3.94794h2.53734a7.78756,7.78756,0,0,0-11.9239-9.7352h5.15677A5.78709,5.78709,0,0,1,20.00528,14.92556Z"/>
  <polygon id="_Path_5" data-name="&lt;Path&gt;" class="cls-4" points="12.103 11.653 17.839 14.965 12.103 18.276 12.103 11.653"/>
  <polygon id="_Path_6" data-name="&lt;Path&gt;" class="cls-5" points="14.08 12.794 17.839 14.965 12.103 18.276 14.08 12.794"/>
</svg>