<?xml version="1.0" encoding="UTF-8"?>
<!-- Created with Inkscape (http://www.inkscape.org/) -->
<svg width="533.33" height="533.33" version="1.1" viewBox="0 0 533.33 533.33" xmlns="http://www.w3.org/2000/svg" xmlns:cc="http://creativecommons.org/ns#" xmlns:dc="http://purl.org/dc/elements/1.1/" xmlns:rdf="http://www.w3.org/1999/02/22-rdf-syntax-ns#">
 <metadata>
  <rdf:RDF>
   <cc:Work rdf:about="">
    <dc:format>image/svg+xml</dc:format>
    <dc:type rdf:resource="http://purl.org/dc/dcmitype/StillImage"/>
    <dc:title/>
   </cc:Work>
  </rdf:RDF>
 </metadata>
 <g stroke-width="1.3333">
  <path d="m1.7789 266.67v-266.67h533.33v533.33h-533.33z" fill="#fdfdfd"/>
  <path d="m14.396 519.68c-0.35275-0.92288-0.48587-40.078-0.29583-87.011l0.34553-85.333h28l0.34481 72.32 0.34481 72.32 119.31 0.69411v28l-73.704 0.34464c-58.254 0.27239-73.839-7e-3 -74.346-1.3333zm359.96-0.1c-0.37525-0.97789-0.50837-7.433-0.29582-14.345l0.38645-12.567 119.31-0.69411 0.34481-72.32 0.34482-72.32h28v173.33l-73.704 0.34464c-60.435 0.28259-73.827 0.0245-74.386-1.4334zm120.36-332.42c-0.51293-0.51292-0.9326-33.226-0.9326-72.697v-71.764l-119.33-0.69412v-28h148v173.33l-13.401 0.37704c-7.3704 0.20737-13.82-0.0427-14.333-0.55556zm-479.6-87.821v-86h146.67v26.667h-120v145.33h-26.667z" fill="#d0d0d0"/>
  <path d="m15.379 519.73c-2.3122-2.3122-2.3122-169.15 0-171.47 2.3473-2.3473 24.28-2.155 26.259 0.23031 1.0964 1.3211 1.5001 21.553 1.451 72.721l-0.06797 70.891 58.21-0.0811c41.793-0.0581 58.728 0.34856 60.046 1.4422 2.39 1.9836 2.5866 23.912 0.23542 26.263-2.308 2.308-143.83 2.308-146.13 0zm360 0c-2.3512-2.3512-2.1546-24.28 0.23543-26.263 1.3178-1.0937 18.253-1.5004 60.046-1.4422l58.21 0.0811-0.068-70.891c-0.0491-51.168 0.35464-71.4 1.451-72.721 1.9796-2.3853 23.912-2.5776 26.259-0.2303 2.3122 2.3122 2.3122 169.15 0 171.47-2.308 2.308-143.83 2.308-146.13 0zm119.87-333.56c-1.0964-1.3211-1.5001-21.553-1.451-72.721l0.068-70.891-58.21 0.08104c-41.793 0.05819-58.728-0.34856-60.046-1.4422-2.39-1.9836-2.5866-23.912-0.23543-26.263 2.308-2.308 143.83-2.308 146.13 0 2.3122 2.3122 2.3122 169.15 0 171.47-2.3473 2.3473-24.28 2.155-26.259-0.2303zm-480.14-86.836v-86h146.67v26.667h-120v145.33h-26.667z" fill="#c5c5c5"/>
  <path d="m15.112 434v-86h26.644l0.34482 72.333 0.34482 72.333 119.33 0.69412v26.639h-146.67zm360 72.68v-13.32l119.33-0.69412 0.34481-72.333 0.34481-72.333h26.644v172h-146.67zm119.68-392.35-0.34481-72.333-119.33-0.69412v-26.639h146.67v172h-26.644zm-479.68-15v-86h146.67v26.667h-120v145.33h-26.667z" fill="#a0a0a0"/>
  <path d="m15.112 434v-86h26.667v145.33h120v26.667h-146.67zm360 72.667v-13.333h120v-145.33h26.667v172h-146.67zm120-392.67v-72.667h-120v-26.667h146.67v172h-26.667zm-480-14.667v-86h146.67v26.667h-120v145.33h-26.667z" fill="#5e5e5e"/>
  <path d="m15.729 518.34c-0.35283-0.923-0.48599-39.478-0.2959-85.678l0.34561-84h25.333l0.68962 144.64 119.31 0.69411v25.333l-72.371 0.34484c-57.187 0.27248-72.505-7e-3 -73.012-1.3333zm359.95-0.11147c-0.37771-0.98429-0.51086-6.8395-0.2959-13.012l0.39084-11.222 119.31-0.69411 0.34482-72.32 0.34481-72.32h25.333v170.67l-72.371 0.34484c-59.557 0.28377-72.492 0.028-73.058-1.4448zm120.36-332.41c-0.51446-0.51446-0.93538-33.229-0.93538-72.699v-71.764l-119.33-0.69412v-25.333h145.33v170.67l-12.065 0.37982c-6.6356 0.20889-12.486-0.0411-13-0.55556zm-480.94-86.491v-86h146.67v26.667h-120v145.33h-26.667z" fill="#373737"/>
  <path d="m16.435 519c-0.0056-0.18334-0.01464-38.486-0.0202-85.116l-0.01013-84.783h24.131l-0.06713 71.268c-0.05591 59.35 0.24347 71.526 1.7902 72.809 1.3463 1.1174 17.892 1.5191 60.138 1.4603l58.281-0.0812v24.155l-72.116 0.31012c-39.664 0.17062-72.12 0.16017-72.126-0.0232zm359.95 0c-0.0319-0.18334-0.084-5.7578-0.116-12.388l-0.058-12.054 58.28 0.0812c42.246 0.0588 58.792-0.34296 60.138-1.4603 1.5467-1.2837 1.8461-13.46 1.7902-72.809l-0.0672-71.268h24.131v169.61l-72.02 0.3101c-39.611 0.17058-72.046 0.16012-72.078-0.0232zm120.04-333.67c-0.012-0.36667-3e-3 -32.535 0.0224-71.485 0.0369-58.945-0.26708-71.077-1.813-72.36-1.3463-1.1174-17.892-1.5191-60.138-1.4603l-58.28 0.08115v-24.156h144.27v169.6l-12.021 0.22429c-6.6114 0.12337-12.031-0.0757-12.043-0.44236zm-481.31-86v-86h146.67v26.667h-120v145.33h-26.667z" fill="#2e2e2e"/>
  <path d="m16.446 434v-84.667h23.977l0.34482 72.333 0.34482 72.333 119.33 0.69412v23.973h-144zm360 72.68v-11.986l119.33-0.69412 0.34481-72.333 0.34482-72.333h23.977v169.33h-144zm-361.33-407.35v-86h146.67v26.667h-120v145.33h-26.667zm481.01 13.667-0.34481-72.333-119.33-0.69412v-23.973h144v169.33h-23.977z"/>
 </g>
</svg>
